HIERARCHY
ROOT Hips
{
  OFFSET 81.5892 83.7393 19.5082
  CHANNELS 6 Xposition Yposition Zposition Zrotation Xrotation Yrotation
  JOINT spine
  {
    OFFSET 0 6.84637 0.3937
    CHANNELS 3 Zrotation Xrotation Yrotation
    JOINT spine1
    {
      OFFSET 0 9.49621 0
      CHANNELS 3 Zrotation Xrotation Yrotation
      JOINT spine2
      {
        OFFSET 0 9.09909 0
        CHANNELS 3 Zrotation Xrotation Yrotation
        JOINT Neck
        {
          OFFSET 0 23.3612 1.11378
          CHANNELS 3 Zrotation Xrotation Yrotation
          JOINT Head
          {
            OFFSET 0 7.05802 0
            CHANNELS 3 Zrotation Xrotation Yrotation
            End Site
            {
              OFFSET 0 17.0844 -5.63419
            }
          }
        }
        JOINT RightShoulder
        {
          OFFSET -3.83136 9.82631 -0.533491
          CHANNELS 3 Zrotation Xrotation Yrotation
          JOINT RightArm
          {
            OFFSET 0 12.8881 0
            CHANNELS 3 Zrotation Xrotation Yrotation
            JOINT RightArmRoll
            {
              OFFSET 0 6.50617 0
              CHANNELS 3 Zrotation Xrotation Yrotation
              JOINT RightForeArm
              {
                OFFSET 0 18.9501 0
                CHANNELS 3 Zrotation Xrotation Yrotation
                JOINT RightForeArmRoll
                {
                  OFFSET 0 7.30092 0
                  CHANNELS 3 Zrotation Xrotation Yrotation
                  JOINT RightHand
                  {
                    OFFSET 0 14.6514 0
                    CHANNELS 3 Zrotation Xrotation Yrotation
                    End Site
                    {
                      OFFSET 0 0 0
                    }
                  }
                }
              }
            }
          }
        }
        JOINT LeftShoulder
        {
          OFFSET 3.83136 9.82631 -0.533491
          CHANNELS 3 Zrotation Xrotation Yrotation
          JOINT LeftArm
          {
            OFFSET 0 12.8881 0
            CHANNELS 3 Zrotation Xrotation Yrotation
            JOINT LeftArmRoll
            {
              OFFSET 0 6.50616 0
              CHANNELS 3 Zrotation Xrotation Yrotation
              JOINT LeftForeArm
              {
                OFFSET 0 18.9501 0
                CHANNELS 3 Zrotation Xrotation Yrotation
                JOINT LeftForeArmRoll
                {
                  OFFSET 0 7.30092 0
                  CHANNELS 3 Zrotation Xrotation Yrotation
                  JOINT LeftHand
                  {
                    OFFSET 0 14.6514 0
                    CHANNELS 3 Zrotation Xrotation Yrotation
                    End Site
                    {
                      OFFSET 0 0 0
                    }
                  }
                }
              }
            }
          }
        }
      }
    }
  }
  JOINT RightUpLeg
  {
    OFFSET -6.06837 -1.11278 -0.933477
    CHANNELS 3 Zrotation Xrotation Yrotation
    JOINT RightUpLegRoll
    {
      OFFSET 0 17.1796 0
      CHANNELS 3 Zrotation Xrotation Yrotation
      JOINT RightLeg
      {
        OFFSET 0 -21.2743 0
        CHANNELS 3 Zrotation Xrotation Yrotation
        JOINT RightLegRoll
        {
          OFFSET 0 21.3439 0
          CHANNELS 3 Zrotation Xrotation Yrotation
          JOINT RightFoot
          {
            OFFSET 0 17.7652 0
            CHANNELS 3 Zrotation Xrotation Yrotation
            JOINT RightToeBase
            {
              OFFSET 0 14.8508 0
              CHANNELS 3 Zrotation Xrotation Yrotation
              End Site
              {
                OFFSET 0.0062947 7.19213 -0.829005
              }
            }
          }
        }
      }
    }
  }
  JOINT LeftUpLeg
  {
    OFFSET 6.06837 -1.11278 -0.933477
    CHANNELS 3 Zrotation Xrotation Yrotation
    JOINT LeftUpLegRoll
    {
      OFFSET 0 17.1797 0
      CHANNELS 3 Zrotation Xrotation Yrotation
      JOINT LeftLeg
      {
        OFFSET 0 21.2742 0
        CHANNELS 3 Zrotation Xrotation Yrotation
        JOINT LeftLegRoll
        {
          OFFSET 0 21.5412 0
          CHANNELS 3 Zrotation Xrotation Yrotation
          JOINT LeftFoot
          {
            OFFSET 0 17.5679 0
            CHANNELS 3 Zrotation Xrotation Yrotation
            JOINT LeftToeBase
            {
              OFFSET 0 14.8508 0
              CHANNELS 3 Zrotation Xrotation Yrotation
              End Site
              {
                OFFSET -0.0282102 7.19213 -0.829005
              }
            }
          }
        }
      }
    }
  }
}
MOTION
Frames: 6
Frame Time: 0.00208333
83.8971 85.3363 17.1018 -14.0279 0.032699 57.0996 -0.84415 -3.66622 0.188415 -1.67381 -3.3333 0.432997 -1.67794 -1.68866 0.460823 9.13495 9.19218 3.11622 -14.0385 4.00543 4.84032 37.4089 -24.6219 -20.1671 46.5129 42.1677 99.5362 6.08628e-007 -2.66362e-006 -8.70119e-006 131.059 77.8173 -111.657 -1.00833e-005 1.10105e-005 -3 8.03016 -4.95094 0.697535 -46.7246 -8.86244 5.27353 -92.2321 -11.8265 -26.9438 -3.08332e-006 -1.20376e-006 -2.78643e-006 -14.6434 3.20658 0.635267 1.0067e-005 7.99347e-006 3.01871 -8.0313 -4.95084 -0.697688 174.435 -7.35474 2.09478 180 7.01419e-015 178.466 -179.553 16.0287 179.273 -7.8112e-008 3.1441e-006 0.0481823 -16.8954 65.2328 17.4887 7.75574 30.7594 3.53048 -175.501 45.8446 2.39503 4.54188e-006 -4.6773e-006 -1.04314 4.39415 -44.5644 3.79192 -1.37099e-006 -3.52311e-006 -0.854169 19.5983 68.7273 -20.1599 -8.13649 25.2326 3.48774 
83.8991 85.3342 17.1372 -14.1604 -0.0533143 57.3868 -0.854697 -3.65902 0.194226 -1.69456 -3.31905 0.445444 -1.69884 -1.67442 0.473613 8.95781 8.96248 3.07863 -13.7405 4.16025 4.77076 37.4599 -24.5232 -20.0612 46.2494 42.7296 98.8803 6.08628e-007 -2.66362e-006 -8.70119e-006 131.356 77.9528 -112.347 -1.00833e-005 1.10105e-005 -3 8.03016 -4.95094 0.697535 -46.7828 -9.08502 5.45253 -92.076 -11.7464 -27.5171 -3.08332e-006 -1.20376e-006 -2.78643e-006 -14.2046 2.74433 0.617993 1.0067e-005 7.99347e-006 3.02713 -8.0313 -4.95084 -0.697688 174.647 -7.39849 2.01632 180 7.01421e-015 178.47 -179.601 15.897 179.287 -7.8112e-008 3.1441e-006 0.0471626 -16.8849 65.2215 17.481 7.76033 30.7264 3.50946 -175.387 46.0258 2.28451 4.54188e-006 -4.6773e-006 -1.03983 4.37033 -44.6348 3.78924 -1.37099e-006 -3.52311e-006 -0.858183 19.614 68.7506 -20.181 -8.13649 25.2326 3.48774 
83.8701 85.3476 17.1796 -14.2938 -0.141286 57.672 -0.865882 -3.65091 0.1995 -1.71662 -3.30299 0.456875 -1.72103 -1.65837 0.485409 8.79655 8.71817 3.04228 -13.4517 4.32641 4.70666 37.5369 -24.4196 -19.9449 45.9987 43.2856 98.1109 6.08628e-007 -2.66362e-006 -8.70119e-006 131.7 78.1002 -113.123 -1.00833e-005 1.10105e-005 -3 8.03016 -4.95094 0.697535 -46.8167 -9.32125 5.64177 -91.9323 -11.6521 -28.111 -3.08332e-006 -1.20376e-006 -2.78643e-006 -13.7276 2.34025 0.616712 1.0067e-005 7.99347e-006 3.03633 -8.0313 -4.95084 -0.697688 174.861 -7.43998 1.93706 180 7.01422e-015 178.474 -179.65 15.7661 179.301 -7.8112e-008 3.1441e-006 0.0462278 -16.8747 65.2111 17.4738 7.76553 30.6901 3.48445 -175.265 46.2081 2.16524 4.54188e-006 -4.6773e-006 -1.03637 4.34235 -44.7048 3.78468 -1.37099e-006 -3.52311e-006 -0.862172 19.6298 68.774 -20.2023 -8.13649 25.2326 3.48774 
83.88 85.3322 17.2056 -14.4278 -0.230843 57.955 -0.877523 -3.64207 0.204397 -1.73962 -3.28544 0.467589 -1.74415 -1.64084 0.496505 8.64695 8.46237 3.00684 -13.1693 4.50127 4.64665 37.6344 -24.3108 -19.819 45.764 43.8294 97.2515 6.08628e-007 -2.66362e-006 -8.70119e-006 132.072 78.2579 -113.957 -1.00833e-005 1.10105e-005 -3 8.03016 -4.95094 0.697535 -46.8314 -9.56816 5.83897 -91.7976 -11.546 -28.7208 -3.08332e-006 -1.20376e-006 -2.78643e-006 -13.2186 1.9885 0.628634 1.0067e-005 7.99347e-006 3.04612 -8.0313 -4.95084 -0.697688 175.076 -7.4792 1.85715 180 7.01424e-015 178.479 -179.699 15.6357 179.315 -7.8112e-008 3.1441e-006 0.0453632 -16.8648 65.2013 17.4671 7.77127 30.6511 3.45579 -175.137 46.3911 2.03896 4.54188e-006 -4.6773e-006 -1.0328 4.31102 -44.7741 3.77854 -1.37099e-006 -3.52311e-006 -0.866103 19.6456 68.7975 -20.2238 -8.13649 25.2326 3.48774 
83.8618 85.3409 17.2403 -14.5625 -0.32162 58.236 -0.889439 -3.63266 0.209074 -1.76319 -3.26676 0.477889 -1.76783 -1.62217 0.507196 8.5048 8.19822 2.97197 -12.8907 4.6822 4.58933 37.747 -24.1967 -19.6843 45.5466 44.3562 96.3283 6.08628e-007 -2.66362e-006 -8.70119e-006 132.456 78.4246 -114.82 -1.00833e-005 1.10105e-005 -3 8.03016 -4.95094 0.697535 -46.8322 -9.82276 6.04185 -91.6687 -11.4303 -29.3417 -3.08332e-006 -1.20376e-006 -2.78643e-006 -12.6839 1.68322 0.650981 1.0067e-005 7.99347e-006 3.05631 -8.0313 -4.95084 -0.697688 175.292 -7.51614 1.77675 180 7.01425e-015 178.483 -179.748 15.5058 179.328 -7.8112e-008 3.1441e-006 0.0445541 -16.8551 65.1919 17.4605 7.77748 30.6096 3.42384 -175.005 46.5745 1.90745 4.54188e-006 -4.6773e-006 -1.02911 4.27714 -44.8421 3.77112 -1.37099e-006 -3.52311e-006 -0.869943 19.6613 68.8208 -20.2452 -8.13649 25.2326 3.48774 
83.8661 85.3028 17.2805 -14.6977 -0.413265 58.515 -0.901449 -3.62284 0.213688 -1.78694 -3.24728 0.488076 -1.79171 -1.60271 0.517778 8.36588 7.92887 2.93734 -12.6131 4.86654 4.53331 37.8692 -24.0768 -19.5418 45.3462 44.8628 95.3694 6.08628e-007 -2.66362e-006 -8.70119e-006 132.828 78.5995 -115.681 -1.00833e-005 1.10105e-005 -3 8.03016 -4.95094 0.697535 -46.8246 -10.0821 6.2481 -91.5425 -11.3074 -29.969 -3.08332e-006 -1.20376e-006 -2.78643e-006 -12.1299 1.41855 0.680983 1.0067e-005 7.99347e-006 3.06672 -8.0313 -4.95084 -0.697688 175.509 -7.55079 1.69598 180 7.01427e-015 178.488 -179.798 15.3762 179.342 -7.8112e-008 3.1441e-006 0.0437857 -16.8455 65.1827 17.4542 7.78408 30.566 3.38893 -174.869 46.7576 1.77251 4.54188e-006 -4.6773e-006 -1.02533 4.24153 -44.9084 3.76274 -1.37099e-006 -3.52311e-006 -0.873657 19.6767 68.8437 -20.2664 -8.13649 25.2326 3.48774 
